<svg height="480pt" viewBox="-80 0 480 480" width="480pt" xmlns="http://www.w3.org/2000/svg"><path d="m104 304h112v48h-112zm0 0" fill="#c18e59"/><path d="m320 160c0 88.367188-71.632812 160-160 160s-160-71.632812-160-160 71.632812-160 160-160 160 71.632812 160 160zm0 0" fill="#af4a47"/><path d="m0 160c0 36.800781 12.601562 70.601562 33.5 97.699219 16.101562 4.101562 33 6.300781 50.5 6.300781 103.800781 0 188-77 188-172 0-19.300781-3.5-37.898438-10-55.199219-27.699219-23-63.199219-36.800781-102-36.800781-88.398438 0-160 71.601562-160 160zm0 0" fill="#e4725f"/><path d="m120 352h80v32h-80zm0 0" fill="#976947"/><path d="m120 384h80v32h-80zm0 0" fill="#c18e59"/><path d="m120 416h80v64h-80zm0 0" fill="#b8cbd9"/><path d="m72 160h-40c0-70.699219 57.300781-128 128-128s128 57.300781 128 128zm0 0" fill="#8bd2f5"/><g fill="#fff"><path d="m152 72h16v-39.601562c-2.699219-.199219-5.300781-.398438-8-.398438s-5.300781.199219-8 .398438zm0 0"/><path d="m244.601562 64.101562-26.203124 26.199219 11.300781 11.300781 26.199219-26.203124c-3.5-4-7.296876-7.796876-11.296876-11.296876zm0 0"/><path d="m90.300781 101.699219 11.300781-11.300781-26.203124-26.199219c-4 3.5-7.796876 7.300781-11.296876 11.300781zm0 0"/><path d="m152 160h16v88h-16zm0 0"/></g><path d="m184 264c0 13.253906-10.746094 24-24 24s-24-10.746094-24-24 10.746094-24 24-24 24 10.746094 24 24zm0 0" fill="#b8cbd9"/></svg>