<svg height="496pt" viewBox="-80 0 496 496" width="496pt" xmlns="http://www.w3.org/2000/svg"><path d="m328 168c0 88.367188-71.632812 160-160 160s-160-71.632812-160-160 71.632812-160 160-160 160 71.632812 160 160zm0 0" fill="#c16b3f"/><path d="m8 168c0 36.816406 12.558594 70.625 33.457031 97.664062 16.085938 4.097657 33.023438 6.335938 50.542969 6.335938 103.832031 0 188-77.007812 188-172 0-19.328125-3.535156-37.878906-9.960938-55.222656-27.695312-22.960938-63.246093-36.777344-102.039062-36.777344-88.367188 0-160 71.632812-160 160zm0 0" fill="#e39854"/><path d="m224 320v40h-112v-40" fill="#c18e59"/><path d="m128 360h80v32h-80zm0 0" fill="#976947"/><path d="m128 392h80v32h-80zm0 0" fill="#c18e59"/><path d="m128 424h80v64h-80zm0 0" fill="#e39854"/><path d="m192 272c0 13.253906-10.746094 24-24 24s-24-10.746094-24-24 10.746094-24 24-24 24 10.746094 24 24zm0 0" fill="#b8cbd9"/><path d="m80 168h-40c0-70.695312 57.304688-128 128-128s128 57.304688 128 128h-40" fill="#8bd2f5"/><path d="m168 336c-92.640625 0-168-75.367188-168-168s75.359375-168 168-168 168 75.367188 168 168-75.359375 168-168 168zm0-320c-83.816406 0-152 68.183594-152 152s68.183594 152 152 152 152-68.183594 152-152-68.183594-152-152-152zm0 0"/><path d="m296 176h-40v-16h31.734375c-4.132813-62.457031-56.253906-112-119.734375-112s-115.601562 49.542969-119.734375 112h31.734375v16h-40c-4.414062 0-8-3.574219-8-8 0-74.992188 61.007812-136 136-136s136 61.007812 136 136c0 4.425781-3.585938 8-8 8zm0 0"/><path d="m160 40h16v40h-16zm0 0"/><path d="m226.34375 98.34375 24-24.003906 11.3125 11.316406-24 24zm0 0"/><path d="m74.34375 85.660156 11.3125-11.3125 24.003906 24-11.316406 11.3125zm0 0"/><path d="m168 304c-17.648438 0-32-14.351562-32-32s14.351562-32 32-32 32 14.351562 32 32-14.351562 32-32 32zm0-48c-8.824219 0-16 7.175781-16 16s7.175781 16 16 16 16-7.175781 16-16-7.175781-16-16-16zm0 0"/><path d="m160 168h16v80h-16zm0 0"/><path d="m224 368h-112c-4.414062 0-8-3.574219-8-8v-40h16v32h96v-32h16v40c0 4.425781-3.585938 8-8 8zm0 0"/><path d="m120 360h16v136h-16zm0 0"/><path d="m200 360h16v136h-16zm0 0"/><path d="m104 384h128v16h-128zm0 0"/><path d="m104 416h128v16h-128zm0 0"/></svg>